<?xml version="1.0" standalone="no"?>
<!DOCTYPE svg PUBLIC "-//W3C//DTD SVG 20010904//EN"
 "http://www.w3.org/TR/2001/REC-SVG-20010904/DTD/svg10.dtd">
<svg version="1.0" xmlns="http://www.w3.org/2000/svg"
 width="512.000000pt" height="512.000000pt" viewBox="0 0 512.000000 512.000000"
 preserveAspectRatio="xMidYMid meet">
<metadata>
Created by potrace 1.14, written by Peter Selinger 2001-2017
</metadata>
<g transform="translate(0.000000,512.000000) scale(0.100000,-0.100000)"
fill="#000000" stroke="none">
<path d="M2266 4789 c-215 -29 -432 -115 -621 -243 -109 -74 -281 -243 -352
-346 -72 -106 -263 -463 -263 -492 0 -24 31 -60 61 -70 8 -3 28 0 45 7 24 10
47 44 123 186 116 214 180 314 262 403 l63 69 86 -5 c47 -3 122 -15 167 -28
71 -19 85 -20 110 -8 51 24 57 102 9 133 -13 9 -56 23 -95 33 -39 9 -69 21
-68 26 6 17 170 95 264 126 51 16 132 37 180 45 115 20 323 20 438 0 233 -41
460 -155 629 -315 66 -63 79 -81 105 -149 69 -179 91 -309 91 -547 0 -198 -13
-259 -78 -360 -69 -107 -198 -200 -304 -219 -34 -6 -43 -3 -95 38 -108 85
-198 119 -239 93 -62 -41 -51 -111 24 -147 l47 -23 -137 -12 c-353 -32 -610
-122 -861 -302 -335 -240 -524 -557 -557 -933 -16 -189 14 -364 98 -564 40
-97 46 -119 46 -185 0 -93 -25 -155 -91 -222 -60 -61 -127 -90 -224 -96 -151
-9 -416 38 -535 94 -87 41 -220 205 -306 376 -93 186 -128 343 -128 566 0 432
140 803 431 1146 243 286 402 503 402 548 0 37 -41 78 -80 78 -31 0 -39 -9
-192 -215 -65 -88 -158 -205 -206 -260 -312 -359 -459 -685 -506 -1120 -32
-300 19 -582 151 -834 234 -443 662 -720 1170 -756 241 -17 669 52 919 150
l56 21 84 -34 c361 -145 820 -175 1195 -77 297 77 575 224 804 425 107 94 121
117 104 163 -12 31 -11 33 56 100 65 64 70 68 94 56 42 -19 71 -4 145 74 234
247 345 534 330 856 -19 418 -260 776 -642 957 -152 72 -261 96 -441 98 l-151
1 -6 230 c-6 253 -20 348 -78 512 -74 210 -177 371 -344 539 -208 211 -421
329 -710 394 -105 24 -369 35 -479 19z m1931 -1864 c186 -39 350 -127 480
-255 44 -43 56 -64 77 -128 92 -293 44 -624 -129 -894 -51 -79 -452 -492 -581
-598 -153 -126 -359 -245 -534 -308 -135 -49 -140 -49 -140 -16 0 51 -29 166
-46 185 -32 35 -101 26 -124 -16 -10 -20 -11 -38 -1 -97 7 -40 11 -89 9 -108
-3 -32 -6 -35 -48 -42 -105 -18 -306 -26 -428 -17 -296 22 -614 120 -747 229
-252 207 -370 405 -405 679 -29 227 44 493 186 678 l47 62 31 -16 c59 -29 94
-73 107 -130 20 -87 76 -117 134 -71 26 20 27 25 22 84 -7 88 -49 158 -135
225 l-34 26 69 50 c203 149 417 229 674 253 435 40 634 78 1042 201 l78 23 36
-19 c89 -48 203 -188 203 -250 0 -36 29 -83 57 -92 41 -15 90 7 99 42 17 68
-30 200 -99 283 -21 24 -37 46 -37 48 0 9 72 3 137 -11z"/>
<path d="M3056 2509 c-18 -14 -26 -30 -26 -50 0 -45 14 -64 72 -97 118 -66
189 -154 214 -261 14 -61 41 -91 81 -91 126 0 95 202 -56 362 -70 75 -193 158
-233 158 -14 0 -37 -9 -52 -21z"/>
<path d="M3957 2190 c-21 -17 -27 -30 -27 -59 0 -34 7 -43 65 -95 67 -59 97
-104 110 -166 15 -73 89 -106 135 -60 63 63 -19 259 -147 353 -66 48 -100 55
-136 27z"/>
<path d="M2700 4152 c-34 -34 -37 -50 -15 -91 10 -21 29 -33 67 -46 109 -35
194 -106 219 -184 17 -53 46 -81 86 -81 111 0 89 161 -39 289 -56 55 -181 124
-250 136 -33 6 -41 3 -68 -23z"/>
<path d="M1573 3378 c-33 -16 -48 -61 -33 -97 14 -35 23 -39 122 -57 125 -22
180 -48 258 -120 76 -70 101 -77 144 -43 101 79 -97 264 -337 313 -87 18 -123
19 -154 4z"/>
<path d="M650 2590 c-31 -31 -36 -68 -13 -98 15 -20 40 -33 94 -48 41 -11 97
-32 124 -46 65 -34 140 -114 156 -167 22 -74 81 -101 133 -60 35 28 34 76 -4
158 -56 117 -178 212 -334 260 -86 27 -130 27 -156 1z"/>
</g>
</svg>
